<?xml version="1.0" encoding="UTF-8"?><svg id="a" xmlns="http://www.w3.org/2000/svg" viewBox="0 0 128 128"><defs><style></style></defs><path class="b" d="M64,4.26C31.08,4.26,4.28,31.05,4.28,63.97s26.79,59.72,59.72,59.72,59.71-26.79,59.71-59.72S96.93,4.26,64,4.26Zm35.99,26.49c7.09,7.68,11.54,17.48,12.67,27.88h-15.15c-.2-8.14-1.87-16.31-4.97-24.32,3.28-1.35,5.8-2.64,7.46-3.56Zm-11.98-6.33c-.08-.17-.17-.35-.26-.51-.93-1.75-2.72-2.83-4.68-2.83-.89,0-1.8,.23-2.61,.66-2.1,1.12-3.13,3.37-2.59,5.9-2.78,.67-5.63,1.16-8.52,1.49V15.31c7.76,.84,15.17,3.53,21.67,7.84-.91,.4-1.91,.84-3.01,1.27Zm-18.66,34.2v-18.61c4.51-.43,8.89-1.21,13.05-2.31,2.74,6.88,4.25,13.9,4.51,20.92h-17.56Zm17.02,10.7c-2.33,15.74-10.66,28.24-17.02,35.77v-35.77h17.02Zm-8.15,41.53c7.08-8.8,16.27-23.31,18.69-41.53h15.75c-2.13,19.59-15.81,35.9-34.44,41.53Zm-19.57-41.53v43.31c-22.65-2.48-40.83-20.66-43.31-43.31H58.65ZM32.32,28.3c-.52,1.29-.48,2.78,.1,4.1,.57,1.31,1.63,2.34,2.91,2.86,7.32,2.98,15.16,4.67,23.33,5.06v18.3H15.34c2.48-22.66,20.66-40.83,43.31-43.31v14.2c-6.72-.34-13.23-1.75-19.38-4.22-.61-.24-1.25-.37-1.91-.37-2.21,0-4.23,1.36-5.04,3.38Z"/></svg>