<?xml version="1.0" encoding="UTF-8"?><svg id="a" xmlns="http://www.w3.org/2000/svg" viewBox="0 0 128 128"><defs><style></style></defs><path class="b" d="M64.55,2.87L10.41,11.73v55.88c0,13.82,6.83,26.75,18.26,34.54l35.88,22.92,35.88-22.92c11.42-7.79,18.26-20.72,18.26-34.54V11.73L64.55,2.87Zm43.68,64.73c0,10.37-5.13,20.07-13.69,25.91l-29.99,18.92-29.99-18.92c-8.57-5.84-13.69-15.54-13.69-25.91V20.55l43.68-7.07,43.68,7.07v47.06Z"/><path class="b" d="M64.39,41.24h0l-3.7-3.69c-6.77-6.6-17.56-6.59-24.32,0-6.89,6.72-7.03,17.74-.31,24.63l28.33,26.54,.16-.16,.16,.16,28.33-26.54c6.72-6.89,6.58-17.92-.31-24.63-6.76-6.6-17.55-6.6-24.32,0l-3.7,3.69h0l-.15-.15-.15,.15Zm.31,14.78l11.09-11.09c2.77-2.67,7.18-2.6,9.85,.17,2.61,2.7,2.61,6.98,0,9.68l-20.94,19.14-.16-.16-.16,.16-20.94-19.14c-2.61-2.7-2.61-6.98,0-9.68,2.67-2.77,7.08-2.84,9.85-.17l11.09,11.09,.16-.16,.16,.16Z"/></svg>