<?xml version="1.0" encoding="UTF-8"?><svg id="a" xmlns="http://www.w3.org/2000/svg" viewBox="0 0 128 128"><defs><style></style></defs><path class="b" d="M44.79,46.79h41.86c4.07,0,6.79-2.72,6.79-6.79s-2.72-6.79-6.79-6.79H44.79c-4.07,0-6.79,2.72-6.79,6.79s2.72,6.79,6.79,6.79Z"/><path class="b" d="M44.79,73.26h41.86c4.07,0,6.79-2.72,6.79-6.79s-2.72-6.79-6.79-6.79H44.79c-4.07,0-6.79,2.72-6.79,6.79s2.72,6.79,6.79,6.79Z"/><path class="b" d="M106.45,3.26H24.99c-7.47,0-13.58,6.11-13.58,13.58V118.66c0,4.07,3.39,6.79,6.79,6.79,.68,0,2.04,0,2.72-.68l41.41-20.36c.68-.68,2.04-.68,2.72-.68s2.04,0,2.72,.68l41.41,20.36c2.04,.68,3.39,.68,4.07,.68,3.39,0,6.79-2.72,6.79-6.79V16.83c0-7.47-6.11-13.58-13.58-13.58Zm0,104.54l-31.9-15.61c-2.72-1.36-6.11-2.04-8.83-2.04s-6.11,.68-8.82,2.04l-31.9,15.61V16.83H106.45V107.8Z"/></svg>