<?xml version="1.0" encoding="UTF-8"?><svg id="a" xmlns="http://www.w3.org/2000/svg" viewBox="0 0 128 128"><defs><style></style></defs><path class="b" d="M123.69,22.4c0-9.9-8.04-17.94-17.94-17.94s-17.94,8.05-17.94,17.94c0,5.98,2.97,11.55,7.75,14.41l-5.2,24.59c-3.91,.23-7.57,1.69-10.03,4.18l-25.99-14.65c.14-.91,.21-1.83,.21-2.76,0-9.89-8.04-17.94-17.94-17.94s-17.94,8.05-17.94,17.94c0,5.88,2.88,11.38,7.53,14.27l-5.36,25.29c-9.28,.71-16.54,8.57-16.54,17.88,0,9.89,8.04,17.94,17.94,17.94s17.94-8.05,17.94-17.94c0-5.85-2.87-11.35-7.49-14.23l5.38-25.34c3.88-.32,7.61-1.91,9.97-4.45l25.72,14.49c-.19,1.06-.29,2.15-.29,3.24,0,9.89,8.05,17.94,17.94,17.94s17.94-8.05,17.94-17.94c0-5.81-2.69-11.09-7.2-14.03l5.32-25.03c9.09-.88,16.22-8.72,16.22-17.85Zm-23.15-.08c0-2.89,2.36-5.25,5.25-5.25s5.25,2.35,5.25,5.25-2.35,5.25-5.25,5.25-5.25-2.35-5.25-5.25Zm-3.85,56.92c0,2.89-2.35,5.25-5.25,5.25s-5.25-2.35-5.25-5.25,2.35-5.25,5.25-5.25,5.25,2.35,5.25,5.25ZM31.4,48.09c0-2.89,2.35-5.25,5.25-5.25s5.25,2.35,5.25,5.25-2.36,5.25-5.25,5.25-5.25-2.35-5.25-5.25Zm-3.88,57.44c0,2.89-2.36,5.25-5.25,5.25s-5.25-2.36-5.25-5.25,2.35-5.25,5.25-5.25,5.25,2.35,5.25,5.25Z"/></svg>