<?xml version="1.0" encoding="UTF-8"?><svg id="a" xmlns="http://www.w3.org/2000/svg" viewBox="0 0 128 128"><defs><style></style></defs><path class="b" d="M24.17,89.77c1.75-3.48,3.99-6.54,6.63-9.06,5.37-5.08,12.28-7.76,20-7.76,3.92,0,7.68,.73,11.15,2.15,.77,.32,1.52,.67,2.24,1.04,.97,.51,2.06,.78,3.16,.78,2.13,0,4.09-.96,5.37-2.63,1.25-1.6,1.72-3.68,1.28-5.67-.26-1.18-.82-2.25-1.63-3.13,8.42-6.59,13.34-16.58,13.34-27.43,0-19.25-15.65-34.9-34.9-34.9S15.92,18.8,15.92,38.05c0,10.67,4.76,20.54,12.94,27.13-11.63,6.89-19.55,19.27-21.99,34.66l-1.21,9.58c-.4,3.15,.58,6.32,2.69,8.71,2.1,2.38,5.12,3.74,8.3,3.74H55.78c3.76,0,6.82-3.06,6.82-6.82s-3.06-6.82-6.82-6.82H21.46c-.66,0-1.08-.36-1.27-.57-.19-.22-.49-.67-.41-1.33l.56-4.54c.71-4.35,1.99-8.39,3.82-12.03ZM35.78,23.01c4.02-4.01,9.36-6.23,15.03-6.23s11.02,2.21,15.04,6.23c4.01,4.01,6.22,9.35,6.22,15.04s-2.21,11.02-6.22,15.03c-4.02,4.01-9.36,6.23-15.04,6.23s-11.02-2.21-15.03-6.23c-4.01-4.02-6.23-9.35-6.23-15.03s2.21-11.02,6.23-15.04Z"/><path class="b" d="M120.65,61.54l-14.32-10.15c-1.31-.86-2.83-1.31-4.4-1.31-2.61,0-5,1.25-6.37,3.28l-27.22,38.87c-.67,1.02-1.46,2.82-1.46,4.57l.26,14.72c0,4.26,3.48,7.73,7.77,7.73,.77,0,1.57-.13,2.37-.38l14-4.85c1.59-.38,3.21-1.51,4.1-2.84l27.22-38.87c2.33-3.46,1.53-8.07-1.94-10.77Zm-35.25,40.09l-4.76,1.65-.08-4.69,22.8-32.58,4.66,3.31-22.63,32.31Z"/></svg>