<?xml version="1.0" encoding="UTF-8"?><svg id="a" xmlns="http://www.w3.org/2000/svg" viewBox="0 0 128 128"><defs><style></style></defs><path class="b" d="M64,4.22c33.08,0,59.9,26.79,59.9,59.83s-26.82,59.83-59.9,59.83S4.1,97.09,4.1,64.05c-.01-33.04,26.8-59.83,59.9-59.83Zm.34,108.5c26.88,0,47.73-21.76,47.73-48.6s-20.85-47.86-47.73-47.86S15.65,37.27,15.65,64.12s21.8,48.6,48.68,48.6Zm-24.35-54.58h17.98v-17.95c0-3.3,2.68-5.98,5.98-5.98h.01c3.3,0,5.98,2.67,5.98,5.98v17.95h17.98c3.31,0,5.98,2.67,5.98,5.97h0c0,3.31-2.68,6-5.98,6h-17.98v17.95c0,3.3-2.68,5.98-5.98,5.98h-.01c-3.31,0-5.98-2.67-5.98-5.98v-17.95h-17.98c-3.31,0-5.98-2.67-5.98-5.98h0c0-3.31,2.67-5.98,5.98-5.98Z"/></svg>