<?xml version="1.0" encoding="UTF-8"?><svg id="a" xmlns="http://www.w3.org/2000/svg" viewBox="0 0 128 128"><defs><style></style></defs><path class="b" d="M118.27,30.37c-.32-5.71-4.47-10.48-10.13-11.6-6.25-.95-12.9-2.45-19.67-4.43-6.2-2.48-12.01-5.8-17.31-9.91-2.12-1.42-4.6-2.16-7.17-2.16-2.96,0-5.86,1.02-8.18,2.9-4.96,4.31-10.84,7.54-17,9.32l-.1,.04c-6.1,2.51-12.44,4.08-18.85,4.67-5.76,.72-10.14,5.48-10.4,11.36v33.5c.49,29.78,35.51,60.05,54.8,60.05s49.04-21.13,53.6-59.4c.76-11.24,.91-22.79,.42-34.33Zm-53.96,82.09c-5.5,0-16.32-5.29-26.37-15.4-10.51-10.56-16.67-22.65-16.9-33.14V30.88c0-.14,.13-.24,.18-.24,7.42-.74,14.62-2.51,21.34-5.25,7.64-2.34,14.77-6.29,20.55-11.36,.28-.21,.59-.28,.78-.28,.15,0,.37,.02,.59,.14,6,4.6,12.59,8.34,19.56,11.1l.48,.21,.47,.13c6.94,2.07,14.01,3.69,20.98,4.81,.45,.1,.66,.53,.71,.8,.47,10.68,.37,21.67-.29,32.6-4,32.56-29.14,48.9-42.08,48.9Z"/><path class="b" d="M87.06,42.99c-1.51,0-2.92,.58-3.98,1.64l-24.81,24.81-13.07-13.07c-1.09-1.09-2.54-1.69-4.09-1.69s-3,.6-4.09,1.69c-2.26,2.26-2.26,5.93,0,8.18l16.95,16.95,.06,.05,.02,.02,.06,.06c1.09,1.05,2.51,1.63,4.01,1.63s2.92-.58,3.98-1.64l29.01-29.01c2.16-2.24,2.16-5.82-.02-8-1.09-1.05-2.51-1.63-4.01-1.63Z"/></svg>