<?xml version="1.0" encoding="UTF-8"?><svg id="a" xmlns="http://www.w3.org/2000/svg" viewBox="0 0 128 128"><defs><style></style></defs><path class="b" d="M101.84,60.12c3.94-4.33,6.15-9.95,6.15-15.78,0-12.14-9.1-22.21-21.76-23.46-3.01,0-5.51,2.26-5.82,5.26-.32,3.2,2.03,6.08,5.24,6.41,6.06,.62,10.63,5.69,10.63,11.79s-4.52,11.1-10.51,11.78c-2.02,.22-3.75,1.51-4.65,3.5-.22,.5-.35,1.02-.39,1.42l-.09,.95,.07,.95c.41,2.78,2.62,4.85,5.38,5,14.62,.81,26.56,12.44,27.77,27.05,.25,3.01,2.81,5.37,5.83,5.37l.49-.02c3.21-.27,5.61-3.1,5.34-6.32-1.21-14.61-10.4-27.66-23.68-33.9Z"/><path class="b" d="M68.54,62.27c5.07-5,7.93-11.77,7.93-18.94,0-14.71-11.97-26.69-26.68-26.69s-26.68,11.98-26.68,26.69c0,7.17,2.86,13.94,7.93,18.94C15.01,69.23,3.91,84.49,2.47,101.86c-.13,1.56,.36,3.08,1.38,4.27,1.01,1.19,2.42,1.91,4.48,2.06,3.05,0,5.55-2.31,5.81-5.37,1.52-18.41,17.18-32.82,35.65-32.82s34.13,14.41,35.66,32.82c.25,3.01,2.81,5.37,5.83,5.37l.48-.02c1.55-.12,2.97-.85,3.98-2.04,1.01-1.19,1.5-2.71,1.37-4.26-1.43-17.36-12.53-32.62-28.56-39.6Zm-18.76-3.96c-8.26,0-14.98-6.72-14.98-14.98s6.72-14.98,14.98-14.98,14.98,6.72,14.98,14.98-6.72,14.98-14.98,14.98Z"/></svg>