<?xml version="1.0" encoding="UTF-8"?><svg id="a" xmlns="http://www.w3.org/2000/svg" viewBox="0 0 128 128"><defs><style></style></defs><path class="b" d="M79.98,79.06c-1.23,0-2.38,.47-3.26,1.32l-15.24,15.54-7.98-7.81c-.87-.85-2.03-1.32-3.26-1.32s-2.38,.46-3.26,1.32c-.88,.86-1.37,2-1.37,3.23s.49,2.38,1.37,3.23l10.93,10.7c.87,.85,2.03,1.32,3.26,1.32s2.38-.47,3.26-1.32l18.81-18.42c.88-.85,1.36-2,1.36-3.23s-.49-2.37-1.36-3.23c-.87-.85-2.03-1.32-3.26-1.32Z"/><path class="b" d="M92.35,63.29c-1.97-1.04-4.05-1.92-6.18-2.67,5.97-5.04,9.84-11.74,11.48-19.95,1.48-8.88-1.15-18.45-7.41-26.99-6.35-7.25-15.58-11.41-25.44-11.41s-18.99,4.16-25.36,11.44c-6.24,8.51-8.86,18.08-7.39,26.97,1.44,7.21,4.71,13.17,9.61,17.44,.65,.66,1.25,1.35,1.97,1.96-18.8,6.54-31.42,24.05-31.42,43.66v7.77c0,7.56,5.93,13.49,13.49,13.49H104c7.57,0,13.49-5.93,13.49-13.49v-7.77c0-17.37-9.91-33.07-25.14-40.45Zm-48.97-24.34c-1.01-6.04,.95-12.7,5.13-17.39,3.89-4.86,9.85-7.66,16.35-7.67,6.5,0,12.46,2.8,16.37,7.68,4.16,4.68,6.12,11.33,5.11,17.37-1.6,9.05-8.96,16.41-17.91,17.91-.95,.19-1.88,.19-2.8,.19v.41s-.08,0-.12,0l-1.41-.42c-.92,0-1.85,0-2.81-.2-8.94-1.49-16.3-8.85-17.9-17.9Zm62.78,72.57c0,1.31-.85,2.16-2.16,2.16H25.71c-1.31,0-2.16-.85-2.16-2.16v-7.77c0-19.32,15.72-35.04,35.04-35.04h12.52c19.32,0,35.04,15.72,35.04,35.04v7.77Z"/></svg>