<?xml version="1.0" encoding="UTF-8"?><svg id="a" xmlns="http://www.w3.org/2000/svg" viewBox="0 0 128 128"><defs><style></style></defs><path class="b" d="M11.42,42.44l50.31,26.99c.95,.5,2.01,.77,3.08,.77s2.13-.27,3.08-.77l50.32-26.99c2.1-1.13,3.42-3.3,3.44-5.7,.02-2.38-1.26-4.59-3.34-5.75L67.99,2.9c-.96-.53-2.06-.82-3.18-.82s-2.22,.29-3.19,.82L11.32,31c-2.09,1.16-3.37,3.37-3.34,5.75,.02,2.39,1.34,4.57,3.44,5.7Zm53.4-26.38l24.51,13.16,8.85,4.38,4.37,2.44-37.29,20.46-25.15-12.92-8.57-4.05-4.45-2.39,37.73-21.08Z"/><path class="b" d="M115.06,57.87c-1.04,0-2.08,.26-3.02,.75l-46.78,25.56L17.58,58.62c-.93-.49-1.97-.75-3.01-.75-2.41,0-4.61,1.32-5.75,3.45-1.68,3.13-.51,7.07,2.61,8.8l50.3,26.98c.94,.51,2.01,.78,3.09,.78s2.15-.27,3.08-.78l50.34-26.98c3.1-1.73,4.27-5.68,2.59-8.8-1.14-2.13-3.34-3.45-5.75-3.45Z"/><path class="b" d="M115.06,85.34c-1.04,0-2.08,.26-3.02,.75l-46.78,25.56-47.69-25.56c-.93-.49-1.97-.75-3.01-.75-2.41,0-4.61,1.32-5.75,3.45-1.68,3.13-.51,7.07,2.61,8.8l50.3,26.98c.94,.51,2.01,.78,3.09,.78s2.15-.27,3.08-.78l50.34-26.98c3.1-1.73,4.27-5.68,2.59-8.8-1.14-2.13-3.34-3.45-5.75-3.45Z"/></svg>