<?xml version="1.0" encoding="UTF-8"?><svg id="a" xmlns="http://www.w3.org/2000/svg" viewBox="0 0 128 128"><defs><style></style></defs><path class="b" d="M41.94,88.12c-15.61-3.08-26.51-17.46-26.51-34.98v-5.73s0-.02,0-.03c0-3.18-2.58-5.75-5.76-5.75s-5.75,2.58-5.75,5.75c0,0,0,.01,0,.02h0v5.75c0,23.11,14.74,42.11,35.82,46.2,1.81,.4,3.07,1.99,3.07,3.87v7.1h0s-.01,.05-.01,.07c0,3.18,2.58,5.75,5.76,5.75s5.75-2.58,5.75-5.75c0-.02-.01-.04-.01-.07h.01v-6.98c0-7.52-5.09-13.77-12.38-15.21Z"/><path class="b" d="M108.4,34.48c0-13.85-10.85-24.7-24.71-24.7-7.33,0-14.57,3.22-19.57,8.66-5-5.44-12.24-8.66-19.57-8.66-13.86,0-24.71,10.85-24.71,24.7,0,15.22,12.21,26.19,30.69,42.78l13.58,12.26,13.3-12.01c18.65-16.77,30.98-27.85,30.98-43.04Zm-43.79,39.11l-.46,.41c-2-1.87-3.98-3.63-5.86-5.29-18.68-16.82-26.93-24.66-26.93-34.23,0-7.53,5.68-13.21,13.21-13.21,4.26,0,8.77,2.12,11.48,5.4l8.09,9.55,8.1-9.56c2.7-3.28,7.21-5.39,11.47-5.39,7.53,0,13.21,5.68,13.21,13.21,0,9.69-9.32,18.48-27.19,34.48-1.62,1.52-3.32,3.03-5.11,4.63Z"/><path class="b" d="M124.07,47.37c0-3.18-2.58-5.75-5.75-5.75s-5.75,2.58-5.75,5.75c0,.01,0,.02,0,.03v5.73c0,17.57-10.9,31.91-26.51,34.86-7.17,1.41-12.38,7.81-12.38,15.21v7.1h.01s-.01,.05-.01,.07c0,3.18,2.58,5.75,5.75,5.75s5.75-2.58,5.75-5.75c0-.02-.01-.04-.01-.07h0v-7.1c0-1.88,1.27-3.48,3.05-3.87,21.1-4.1,35.84-23.1,35.84-46.21v-5.75h0s0-.01,0-.02Z"/></svg>