<?xml version="1.0" encoding="UTF-8"?><svg id="a" xmlns="http://www.w3.org/2000/svg" viewBox="0 0 128 128"><defs><style></style></defs><path class="b" d="M113.19,28.89L69.8,3.84c-1.76-1.02-3.77-1.55-5.8-1.55s-4.04,.54-5.81,1.55L14.8,28.89c-3.58,2.08-5.8,5.93-5.8,10.06v50.1c0,4.13,2.22,7.98,5.8,10.06l43.38,25.05c1.76,1.02,3.78,1.56,5.81,1.56s4.05-.55,5.81-1.56l43.39-25.05c3.58-2.07,5.8-5.93,5.8-10.06V38.95c0-4.13-2.22-7.99-5.81-10.06Zm-55.39,38.55v42.24l-36.42-20.63V46.41l36.42,21.02Zm-30.1-31.69L64,14.79l36.26,20.94-36.3,20.96L27.7,35.75Zm79.3,52.63l-36.81,21.25v-42.23l36.46-21.04,.35,42.02Z"/></svg>