<?xml version="1.0" encoding="UTF-8"?><svg id="a" xmlns="http://www.w3.org/2000/svg" viewBox="0 0 128 128"><defs><style></style></defs><path class="b" d="M124.64,51.99c-.26-3.09-2.48-5.49-5.63-6.09-4.75-1.12-8.86-4.2-11.27-8.45-2.4-4.25-2.94-9.36-1.47-13.97,1-2.8,.13-5.93-2.11-7.75-5.85-5.45-12.63-9.52-20.11-12.08-.76-.33-1.57-.49-2.45-.5-2.07,.11-3.98,1.02-5.42,2.59-3.01,3.66-7.33,5.59-12.51,5.59-4.83-.19-9.46-2.35-12.7-5.94-1.05-1.15-2.32-1.77-3.65-1.77h-.1v-.29h-.87c-.94,.02-1.85,.18-2.75,.5-7.11,2.9-13.72,6.85-19.6,11.69-2.49,1.75-3.52,4.98-2.51,7.8,1.46,4.82,.96,9.91-1.39,14.28-2.51,4.03-6.4,6.91-11.08,8.14l-.87,.38c-2.08,1.13-3.59,2.98-4.4,5.47-.79,4.01-1.18,8.09-1.16,12.13-.04,3.95,.34,7.91,1.14,11.67,.26,3.09,2.49,5.48,5.62,6.08,4.64,1.15,8.65,4.19,11.02,8.33,2.37,4.14,2.96,9.14,1.63,13.65-1,2.8-.13,5.93,2.1,7.74,5.8,5.57,12.73,9.68,20.65,12.25l.92,.24h1.13c2.09-.08,4.05-.93,5.57-2.46,3.13-3.57,7.71-5.63,12.54-5.63,4.83,.19,9.46,2.35,12.69,5.93,1.26,1.43,3.01,2.3,4.95,2.46h.39c.73,.01,1.46-.12,2.18-.39,7.15-2.88,13.76-6.82,19.58-11.67,2.58-1.74,3.62-4.98,2.55-7.8-1.39-4.84-.82-9.93,1.58-14.3,2.57-4.13,6.53-6.94,11.63-8.22,2.14-1.12,3.68-3,4.47-5.53,.79-3.98,1.18-8.06,1.16-12.16-.21-4.05-.7-8.1-1.43-11.93Zm-30.25,51.76c-3,2.28-6.54,4.53-10.53,6.67-5.31-4.69-12.1-7.34-19.19-7.48h-.19c-7.27,0-14.21,2.7-19.13,7.43-3.83-1.54-7.67-3.73-11.15-6.36,2.66-14.4-5.67-29.01-19.21-33.68-.32-2.25-.47-4.53-.45-6.78,0-1.94,.11-3.89,.2-5.67l.07-1.34c6.52-2.39,12.06-6.98,15.64-12.98,3.53-6.3,4.73-13.65,3.31-20.26,3.16-2.39,6.85-4.7,10.97-6.88,5.34,4.72,12.12,7.27,19.65,7.39,7.1,0,13.84-2.65,18.61-7.28,3.67,1.52,7.39,3.65,10.81,6.21-2.66,14.4,5.66,29,19.2,33.67,.31,2.5,.52,4.99,.61,7.44,0,2.05-.13,4.12-.26,5.99l-.04,.66c-13.75,4.9-21.95,19.31-18.92,33.26Z"/><path class="b" d="M63.79,41.73c-10.12,.09-18.84,7.37-20.75,17.31-1.91,9.94,3.51,19.93,12.87,23.76,2.58,1.05,5.29,1.59,8.07,1.59,7.16,0,13.8-3.56,17.76-9.52,5.6-8.43,4.48-19.73-2.68-26.89-4.04-3.98-9.47-6.2-15.28-6.24Zm-6.46,15.12c1.69-1.68,3.93-2.61,6.58-2.65h.02c4.92,.09,8.89,4.14,8.88,9.07,0,4.98-4.07,9.04-9.06,9.05-4.97,0-9.04-4.05-9.06-9.03-.03-2.4,.94-4.75,2.64-6.44Z"/></svg>