<?xml version="1.0" encoding="UTF-8"?><svg id="a" xmlns="http://www.w3.org/2000/svg" viewBox="0 0 128 128"><defs><style></style></defs><path class="b" d="M46.45,3.64H14.29C8.59,3.64,3.95,8.25,3.95,13.92V91.06c0,5.66,4.64,10.27,10.35,10.28H46.45c5.7,0,10.34-4.61,10.34-10.27V13.92c0-5.67-4.64-10.27-10.34-10.27Zm-2.21,83.36c0,.98-.79,1.78-1.77,1.78H18.27c-.98,0-1.77-.8-1.77-1.79V17.99c0-.99,.79-1.79,1.77-1.79h24.2c.98,0,1.77,.8,1.77,1.79V87Z"/><path class="b" d="M112.29,26.66h-32.16c-5.7,0-10.35,4.61-10.35,10.27V114.08c0,5.66,4.64,10.27,10.35,10.28h32.16c5.7,0,10.34-4.61,10.34-10.27V36.93c0-5.67-4.64-10.27-10.34-10.27Zm-2.21,83.36c0,.98-.79,1.78-1.77,1.78h-24.2c-.98,0-1.77-.8-1.77-1.79V41c0-.99,.79-1.79,1.77-1.79h24.2c.98,0,1.77,.8,1.77,1.79V110.02Z"/><path class="b" d="M10.38,111.07H50.36c3.55,0,6.44,2.88,6.44,6.44v.41c0,3.55-2.88,6.44-6.44,6.44H10.38c-3.55,0-6.44-2.88-6.44-6.44v-.41c0-3.55,2.88-6.44,6.44-6.44Z"/><rect class="b" x="69.79" y="4.25" width="52.85" height="13.29" rx="6.44" ry="6.44"/></svg>