<?xml version="1.0" encoding="UTF-8"?><svg id="a" xmlns="http://www.w3.org/2000/svg" viewBox="0 0 128 128"><defs><style></style></defs><path class="b" d="M39.85,114.03H19.28c-1.01,0-1.85-.85-1.85-1.85V15.82c0-1,.85-1.85,1.85-1.85H97.39c1.01,0,1.85,.85,1.85,1.85v22.05c0,3.05,2.48,5.53,5.53,5.53s5.53-2.48,5.53-5.53V15.82c0-7.12-5.79-12.91-12.91-12.91H19.28c-7.12,0-12.91,5.79-12.91,12.91V112.17c0,7.12,5.79,12.91,12.91,12.91h20.57c3.05,0,5.53-2.48,5.53-5.53s-2.48-5.53-5.53-5.53Z"/><path class="b" d="M77.67,54.8c0-3.05-2.48-5.53-5.53-5.53H31.16c-3.05,0-5.53,2.48-5.53,5.53s2.48,5.52,5.53,5.52h40.98c3.05,0,5.53-2.48,5.53-5.52Z"/><path class="b" d="M31.3,72.53c-3.05,0-5.53,2.48-5.53,5.53s2.48,5.52,5.53,5.52h27.47c3.05,0,5.53-2.48,5.53-5.52s-2.48-5.53-5.53-5.53H31.3Z"/><path class="b" d="M119.3,65.3l-15.76-14.04c-1.24-1.11-2.84-1.73-5.15-1.73h-.18c-1.81,.18-3.47,1.03-4.69,2.39l-38.24,42.93c-1.6,1.79-2.98,4.74-2.11,7.38l.48,22.27,21.09-2.32c1.58,0,3.15-.62,4.68-1.86,.84-.68,1.61-1.48,2.1-2.04l19.61-21.55c.99-1.09,1.5-2.51,1.43-3.98-.07-1.47-.71-2.83-1.8-3.82-1.02-.93-2.34-1.44-3.72-1.44-1.55,0-3.04,.66-4.09,1.8l-19.58,21.83-8.96,1.03-.46-10.42,25.03-28.09,12.37,12.76c1.05,1.08,2.45,1.67,4.68,1.67h.01c1.58,0,3.1-.68,4.14-1.87l9.6-10.88c2.61-2.95,2.38-7.44-.5-10.01Zm-10.34,5.59l-3.44,3.9-9.16-9.45,2.82-3.17,9.78,8.71Z"/><path class="b" d="M84.06,32.02c0-3.05-2.48-5.53-5.53-5.53H31.12c-3.05,0-5.53,2.48-5.53,5.53s2.48,5.52,5.53,5.52h47.41c3.05,0,5.53-2.48,5.53-5.52Z"/></svg>