<svg xmlns="http://www.w3.org/2000/svg" width="20" height="20" viewBox="0 0 20 20"><defs><style>.a{fill:#ffa9a9;opacity:0;}.b{}</style></defs><g transform="translate(-638 -663)"><rect class="a" width="20" height="20" transform="translate(638 663)"/><g transform="translate(400.553 277.184)"><path class="b" d="M248.842,394.255a2.707,2.707,0,1,0-2.7,2.708,1.763,1.763,0,0,0,1.208-.383l1.647,1.648.085-.063.853-1.025-1.535-1.4A2.693,2.693,0,0,0,248.842,394.255Zm-2.706-1.274a1.275,1.275,0,1,1-1.275,1.274A1.276,1.276,0,0,1,246.135,392.981Z" transform="translate(0.662 0.875)"/><path class="b" d="M254.45,390.8l-7.053-3.283-7.02,3.393.006,5.878c.156,3.248,2.9,6.22,6.662,7.226l.4.1.566-.148c3.77-1.073,6.5-4.2,6.5-7.425Zm-7.04,11.829-.316-.091c-3.046-.932-5.219-3.359-5.284-5.9l-.071-4.864,5.709-2.7,5.639,2.587.015.673v4.208h.089l-.111.226C252.942,399.384,250.608,401.792,247.41,402.628Z" transform="translate(0)"/></g></g></svg>