<?xml version="1.0" encoding="UTF-8"?><svg id="a" xmlns="http://www.w3.org/2000/svg" viewBox="0 0 128 128"><defs><style></style></defs><path class="b" d="M104.98,41.75l-18.68,.49V22.98c0-10.35-8.41-18.76-18.75-18.76H23.45C13.1,4.22,4.69,12.63,4.69,22.98v44.11c0,10.34,8.41,18.75,18.76,18.75l18.54-.49h.14v19.28c0,10.34,8.41,18.75,18.76,18.75h44.1c10.34,0,18.75-8.41,18.75-18.75V60.51c0-10.35-8.41-18.76-18.75-18.76ZM63.7,111.62c-5.43,0-9.86-4.42-9.86-9.85v-15.96l32.46-.48-.49-27.82-11.22,.49,.49,16.03v.06H26.27c-5.43,0-9.86-4.42-9.86-9.85V25.8c0-5.43,4.42-9.85,9.86-9.85h38.46c5.43,0,9.86,4.42,9.86,9.85l.5,15.89v.06l-32.95,.49,.49,27.82,11.23-.49-.49-16.07v-.02h48.8c5.43,0,9.85,4.42,9.85,9.85v40.07c0,4.53-3.69,8.23-8.23,8.23H63.7Z"/></svg>