<?xml version="1.0" encoding="UTF-8"?><svg id="a" xmlns="http://www.w3.org/2000/svg" viewBox="0 0 128 128"><defs><style></style></defs><path class="b" d="M108.03,56.89c-5.15,0-9.93,2.78-11.97,7.04l-18.09-3.57c-.17-5.12-2.49-9.65-6.09-12.81l7.32-15.61c7.91,0,14.34-6.43,14.34-14.34s-6.43-14.33-14.34-14.33-14.33,6.43-14.33,14.33c0,4.28,1.9,8.3,5.09,10.5l-6.69,15.27c-1.02-.18-2.06-.32-3.13-.32-3.89,0-7.46,1.28-10.4,3.39l-18.4-14.77c.84-1.86,1.27-3.85,1.27-5.9,0-7.9-6.43-14.34-14.33-14.34S3.94,17.86,3.94,25.76s6.43,14.33,14.34,14.33c2.4,0,4.67-.57,6.25-1.73l19.24,15.44c-.95,2.19-1.5,4.59-1.5,7.13,0,2.96,.79,5.71,2.06,8.17l-18.75,17.57c-2.24-1.36-4.81-2.08-7.45-2.08-7.9,0-14.33,6.43-14.33,14.34s6.43,14.33,14.33,14.33,14.33-6.42,14.33-14.33c0-1.79-.32-3.54-1.08-4.68l19.4-18.14c2.73,1.69,5.91,2.71,9.36,2.71,1.18,0,2.33-.13,3.45-.35l10.79,19.9c-2.66,2.67-4.18,6.36-4.18,10.12,0,7.9,6.43,14.33,14.33,14.33s14.33-6.43,14.33-14.33-6.43-14.34-14.33-14.34c-.63,0-1.26,.04-1.42,.36l-11.02-20.38c1.44-1.3,2.64-2.84,3.6-4.55l18.13,3.59c.97,7.05,7.08,12.37,14.2,12.37,7.9,0,14.33-6.43,14.33-14.34s-6.43-14.33-14.33-14.33ZM79.22,13.11c2.48,0,4.5,2.02,4.5,4.49s-2.02,4.5-4.5,4.5-4.5-2.02-4.5-4.5,2.02-4.49,4.5-4.49ZM18.27,30.25c-2.48,0-4.5-2.02-4.5-4.5s2.02-4.5,4.5-4.5,4.49,2.02,4.49,4.5-2.02,4.5-4.49,4.5Zm-.13,73.17c-2.48,0-4.49-2.02-4.49-4.49s2.02-4.5,4.49-4.5,4.5,2.02,4.5,4.5-2.02,4.49-4.5,4.49Zm66.4,.57c2.48,0,4.49,2.02,4.49,4.5s-2.02,4.49-4.49,4.49-4.5-2.02-4.5-4.49,2.02-4.5,4.5-4.5Zm23.49-28.26c-2.48,0-4.5-2.02-4.5-4.5s2.02-4.49,4.5-4.49,4.49,2.02,4.49,4.49-2.02,4.5-4.49,4.5Z"/></svg>