<?xml version="1.0" encoding="UTF-8"?><svg id="a" xmlns="http://www.w3.org/2000/svg" viewBox="0 0 128 128"><defs><style></style></defs><path class="b" d="M103.55,125.75c-1.44,0-2.64-.75-3.14-1.93-.2-.47-.32-1.45-.32-2.56v-9.49c0-.57-.46-1.02-1.02-1.02H42.07c-14.77,0-26.78-11.94-26.78-26.63s12.01-26.65,26.78-26.65h53.09c7.48,0,13.58-6.07,13.62-13.54-.03-7.47-6.13-13.53-13.6-13.53H44.3c-.43,0-.81,.26-.96,.67-3.1,8.45-10.93,13.93-19.97,13.93-11.72,0-21.25-9.49-21.25-21.15S11.65,2.7,23.37,2.7c9.03,0,16.87,5.47,19.97,13.93,.14,.41,.53,.67,.96,.67h50.87c14.76,0,26.77,11.95,26.77,26.64s-12.01,26.64-26.77,26.64H42.07c-7.48,0-13.59,6.07-13.62,13.55,.03,7.46,6.14,13.52,13.6,13.52h57.02c.56,0,1.02-.45,1.02-1.02v-10.09c.03-1,.15-1.85,.32-2.25,.47-1.13,1.52-1.77,2.89-1.77,1.2,0,2.41,.51,3.26,1.35l17.32,17.23c1.7,1.72,1.68,4.54-.03,6.25l-17.3,17.19c-.78,.78-1.87,1.23-3.01,1.23ZM23.37,15.82c-4.46,0-8.1,3.6-8.1,8.03s3.63,8.05,8.1,8.05,8.09-3.6,8.09-8.04-3.63-8.04-8.09-8.04Z"/></svg>