<?xml version="1.0" encoding="UTF-8"?><svg id="a" xmlns="http://www.w3.org/2000/svg" viewBox="0 0 128 128"><defs><style></style></defs><path class="b" d="M119.96,12.76h-35.42c-7.78,.05-15.37,3.53-20.53,9.36-5.25-5.88-12.94-9.36-20.82-9.36H7.96c-1.67,.04-2.98,1.39-2.98,3.06V101.73c.05,1.64,1.43,2.97,3.07,2.97H48.53c4.34,.07,7.97,3.41,8.45,7.79,.15,1.2,.97,2.18,2.06,2.58v.18h8.85c1.67,0,3-1.26,3.16-2.99,.53-4.3,4.21-7.56,8.56-7.56h40.44c1.64-.04,2.98-1.42,2.98-3.06V15.73c-.05-1.66-1.4-2.97-3.07-2.97Zm-48.96,27.55c.13-7.48,6.33-13.56,13.82-13.56h24.22v63.96h-29.96c-2.74,.05-5.45,.63-8.07,1.71V40.32ZM18.97,90.7V26.75h24.67c7.37,.24,13.24,6.19,13.36,13.52v52.13c-2.71-1.11-5.66-1.7-8.6-1.7H18.97Z"/></svg>